<?xml version="1.0" encoding="UTF-8" standalone="no"?>
<!DOCTYPE svg PUBLIC "-//W3C//DTD SVG 1.1//EN" "http://www.w3.org/Graphics/SVG/1.1/DTD/svg11.dtd">
<svg width="100%" height="100%" viewBox="0 0 500 200" version="1.1" xmlns="http://www.w3.org/2000/svg" xmlns:xlink="http://www.w3.org/1999/xlink" xml:space="preserve" xmlns:serif="http://www.serif.com/" style="fill-rule:evenodd;clip-rule:evenodd;stroke-linejoin:round;stroke-miterlimit:1.41421;">
    <g transform="matrix(2.65455,0,0,2.65455,-163.608,-2414.81)">
        <rect x="226.69" y="932.943" width="20.021" height="49.829" style="fill:rgb(252,203,0);"/>
    </g>
    <g transform="matrix(2.65455,0,0,2.65455,183.37,177.921)">
        <path d="M0,-59.965C0.705,-60.431 1.448,-60.869 2.229,-61.281C5.519,-62.992 9.307,-64.264 13.614,-65.076C17.921,-65.889 22.488,-66.295 27.315,-66.295C32.054,-66.295 36.253,-66.059 39.911,-65.618C43.547,-65.178 46.924,-64.483 50.02,-63.552C50.02,-63.552 50.458,-44.531 50.458,-44.53C50.454,-44.712 49.432,-45.312 49.263,-45.436C48.849,-45.74 48.431,-46.04 48.009,-46.334C47.178,-46.911 46.33,-47.465 45.465,-47.989C43.782,-49.01 42.032,-49.922 40.219,-50.687C36.639,-52.196 32.819,-53.104 28.933,-53.262C26.591,-53.358 24.241,-53.186 21.932,-52.792C20.776,-52.595 19.636,-52.398 18.504,-52.095C17.494,-51.824 16.519,-51.498 15.672,-50.86C15.138,-50.456 14.661,-49.964 14.241,-49.444C13.528,-48.562 13.18,-47.58 13.18,-46.495C13.18,-45.294 13.569,-44.227 14.371,-43.294C15.172,-42.348 16.318,-41.45 17.812,-40.602C19.284,-39.773 21.081,-38.943 23.202,-38.129C13.289,-41.947 -15.231,-49.311 0,-59.965M-18.398,6.06C-18.469,6.073 26.803,6.33 32.926,5.315C38.98,4.308 43.418,3.171 47.068,0.351C58.363,-8.521 31.942,-17.59 25.998,-19.644L26.773,-19.244C28.872,-18.149 31.676,-16.557 31.676,-14.463C31.676,-13.43 31.535,-12.331 30.723,-11.602C28.352,-9.467 -14.755,-10.161 -18.398,-10.231L-18.398,6.06ZM-18.398,6.06L-67.034,6.06L-67.034,-10.231L-18.398,-10.231L-18.398,6.06Z" style="fill:rgb(243,243,243);"/>
    </g>
    <g transform="matrix(2.65455,0,0,2.65455,-163.608,-2450.92)">
        <rect x="64.167" y="956.513" width="28.293" height="16.292" style="fill:rgb(243,243,243);"/>
    </g>
    <g transform="matrix(2.65455,0,0,2.65455,174.98,107.4)">
        <path d="M0,-6.482C3.484,-3.128 8.788,-0.3 15.886,2.002C18.679,2.901 21.276,3.782 23.678,4.645C25.754,5.372 27.578,6.133 29.159,6.922C35.103,8.976 61.524,18.044 50.229,26.917C51.689,25.79 53.022,24.396 54.283,22.632C56.21,19.922 57.161,16.603 57.161,12.622C57.161,9.744 56.62,7.22 55.517,5.069C54.414,2.901 52.834,0.969 50.754,-0.723C48.7,-2.4 46.211,-3.925 43.311,-5.261C40.409,-6.601 37.164,-7.872 33.526,-9.056C30.865,-9.92 28.463,-10.754 26.362,-11.564C16.45,-15.382 -12.071,-22.745 3.161,-33.399C0.919,-31.917 -0.932,-30.165 -2.38,-28.128C-4.286,-25.468 -5.216,-22.285 -5.216,-18.575C-5.216,-13.85 -3.485,-9.818 0,-6.482" style="fill:rgb(252,203,0);"/>
    </g>
    <g transform="matrix(-2.65455,0,0,2.65455,917.873,-2414.54)">
        <rect x="193.692" y="932.943" width="20.022" height="49.726" style="fill:rgb(252,203,0);"/>
    </g>
    <g transform="matrix(2.65455,0,0,2.65455,-163.608,-2602.84)">
        <rect x="193.692" y="982.772" width="20.021" height="21.004" style="fill:rgb(243,243,243);"/>
    </g>
    <g transform="matrix(2.65455,0,0,2.65455,-163.608,-2602.84)">
        <rect x="226.688" y="982.772" width="20.021" height="21.004" style="fill:rgb(243,243,243);"/>
    </g>
    <g transform="matrix(2.65455,0,0,2.65455,-163.608,-2451.06)">
        <rect x="92.468" y="956.564" width="21.032" height="16.241" style="fill:rgb(252,203,0);"/>
    </g>
    <g transform="matrix(2.65455,0,0,2.65455,-163.608,-2583.15)">
        <rect x="64.167" y="981.419" width="49.332" height="16.291" style="fill:rgb(243,243,243);"/>
    </g>
</svg>
